<svg width="80" height="80" viewBox="0 0 80 80" fill="none" xmlns="http://www.w3.org/2000/svg">
<rect width="80" height="80" rx="40" fill="url(#paint0_linear_521_55)"/>
<path d="M16.531 37.2727C17.4364 37.7797 18.1659 38.4167 18.6674 39.1381C19.9492 40.9381 19.9492 43.1381 19.9492 45.2727C19.9492 49.6927 20.2163 51.8181 26.3583 51.8181C26.9249 51.8181 27.4683 51.9714 27.869 52.2441C28.2696 52.5169 28.4947 52.8869 28.4947 53.2727C28.4947 53.6584 28.2696 54.0284 27.869 54.3012C27.4683 54.574 26.9249 54.7272 26.3583 54.7272C21.6904 54.7272 18.5285 53.6108 16.9583 51.4072C15.6765 49.6072 15.6765 47.4072 15.6765 45.2727C15.6765 40.8527 15.4095 38.7272 9.26741 38.7272C8.70081 38.7272 8.15742 38.574 7.75677 38.3012C7.35612 38.0284 7.13104 37.6584 7.13104 37.2727C7.13104 36.8869 7.35612 36.5169 7.75677 36.2441C8.15742 35.9714 8.70081 35.8181 9.26741 35.8181C15.4095 35.8181 15.6765 33.6927 15.6765 29.2727C15.6765 27.1418 15.6765 24.9381 16.9583 23.1381C18.5339 20.9345 21.6957 19.8181 26.3637 19.8181C26.9303 19.8181 27.4736 19.9714 27.8743 20.2441C28.2749 20.5169 28.5 20.8869 28.5 21.2727C28.5 21.6584 28.2749 22.0284 27.8743 22.3012C27.4736 22.574 26.9303 22.7272 26.3637 22.7272C20.2216 22.7272 19.9546 24.8527 19.9546 29.2727C19.9546 31.4036 19.9546 33.6072 18.6727 35.4072C18.1697 36.129 17.4383 36.766 16.531 37.2727ZM69.0909 35.8181C62.9489 35.8181 62.6818 33.6927 62.6818 29.2727C62.6818 27.1418 62.6818 24.9381 61.4 23.1381C59.8298 20.9345 56.668 19.8181 52 19.8181C51.4334 19.8181 50.89 19.9714 50.4894 20.2441C50.0887 20.5169 49.8637 20.8869 49.8637 21.2727C49.8637 21.6584 50.0887 22.0284 50.4894 22.3012C50.89 22.574 51.4334 22.7272 52 22.7272C58.1421 22.7272 58.4091 24.8527 58.4091 29.2727C58.4091 31.4036 58.4091 33.6072 59.6909 35.4072C60.1924 36.1286 60.9219 36.7656 61.8273 37.2727C60.9219 37.7797 60.1924 38.4167 59.6909 39.1381C58.4091 40.9381 58.4091 43.1381 58.4091 45.2727C58.4091 49.6927 58.1421 51.8181 52 51.8181C51.4334 51.8181 50.89 51.9714 50.4894 52.2441C50.0887 52.5169 49.8637 52.8869 49.8637 53.2727C49.8637 53.6584 50.0887 54.0284 50.4894 54.3012C50.89 54.574 51.4334 54.7272 52 54.7272C56.668 54.7272 59.8298 53.6108 61.4 51.4072C62.6818 49.6072 62.6818 47.4072 62.6818 45.2727C62.6818 40.8527 62.9489 38.7272 69.0909 38.7272C69.6575 38.7272 70.2009 38.574 70.6016 38.3012C71.0022 38.0284 71.2273 37.6584 71.2273 37.2727C71.2273 36.8869 71.0022 36.5169 70.6016 36.2441C70.2009 35.9714 69.6575 35.8181 69.0909 35.8181Z" fill="#E7E7E7"/>
<path d="M23.455 37.555V30.82L25.075 32.305V36.01L23.455 37.555ZM32.59 30.82V37.555L30.97 36.07V32.38L32.59 30.82ZM23.41 38.065L25.03 39.61V43.315L23.41 44.785V38.065ZM32.545 44.785L30.925 43.225V39.535L32.545 38.065V44.785ZM25.84 35.26V32.215L30.1 39.385V42.445L25.84 35.26ZM36.6521 46.195L38.1971 44.575H41.9021L43.3571 46.195H36.6521ZM36.2021 38.83L37.8221 40.39V44.065L36.2021 45.535V38.83ZM43.8371 45.535L42.2171 43.99V40.3L43.8371 38.83V45.535ZM37.9421 39.37C37.5921 39.09 37.2371 38.815 36.8771 38.545L37.9421 37.75H42.0371L43.0871 38.545L42.0371 39.37H37.9421ZM36.6371 30.955H43.3421L41.8571 32.575H38.1821L36.6371 30.955ZM36.1571 38.305V31.6L37.7771 33.055V36.775L36.1571 38.305ZM43.7921 31.6V38.305L42.1721 36.85V33.145L43.7921 31.6ZM49.9691 40.75V44.065L48.3641 45.535V38.83L49.9691 40.75ZM53.1041 42.475C53.1141 42.485 53.1391 42.51 53.1791 42.55C53.2291 42.59 53.2641 42.625 53.2841 42.655C53.2841 42.665 53.2891 42.67 53.2991 42.67L53.3141 42.7L55.5041 44.95L53.1041 42.475ZM53.1041 34.63C53.1141 34.62 53.1391 34.595 53.1791 34.555C53.2291 34.515 53.2641 34.48 53.2841 34.45L53.2991 34.435C53.3091 34.425 53.3141 34.415 53.3141 34.405L55.5041 32.155L53.1041 34.63ZM48.3641 38.83L49.9691 40.39V44.065L48.3641 45.535V38.83ZM50.0891 39.37C49.7291 39.08 49.3891 38.805 49.0691 38.545L50.0891 37.75H50.1641L51.1991 38.545L50.1641 39.37H50.0891ZM48.3341 38.305V31.6L49.9391 33.055V36.775L48.3341 38.305ZM50.8391 40.105H53.0741C53.4141 40.445 53.8841 40.935 54.4841 41.575C55.0941 42.215 55.4791 42.62 55.6391 42.79L55.5041 44.95L53.3141 42.7L53.2991 42.685C53.2891 42.675 53.2841 42.665 53.2841 42.655L53.1041 42.475L50.8391 40.105ZM50.8391 37L53.1041 34.63C53.1141 34.62 53.1391 34.595 53.1791 34.555C53.2291 34.515 53.2641 34.48 53.2841 34.45L53.2991 34.435C53.3091 34.425 53.3141 34.415 53.3141 34.405L55.5041 32.155L55.6391 34.315C55.4791 34.485 55.0941 34.89 54.4841 35.53C53.8841 36.17 53.4141 36.66 53.0741 37H50.8391Z" fill="white"/>
<defs>
<linearGradient id="paint0_linear_521_55" x1="6.36364" y1="7.27273" x2="84.5455" y2="86.3636" gradientUnits="userSpaceOnUse">
<stop stop-color="#D3EA12"/>
<stop offset="1" stop-color="#8C5400"/>
</linearGradient>
</defs>
</svg>
